<svg width="33" height="32" viewBox="0 0 33 32" fill="none" xmlns="http://www.w3.org/2000/svg">
<path d="M9.16515 20.643C7.27848 21.7657 2.33181 24.059 5.34515 26.9297C6.81581 28.331 8.45448 29.3337 10.5145 29.3337H22.2718C24.3331 29.3337 25.9718 28.331 27.4425 26.9297C30.4558 24.059 25.5091 21.7657 23.6225 20.643C21.4329 19.3495 18.9363 18.6671 16.3931 18.6671C13.85 18.6671 11.3548 19.3495 9.16515 20.643ZM22.3945 8.66699C22.3945 10.2583 21.7623 11.7844 20.6371 12.9096C19.5119 14.0349 17.9858 14.667 16.3945 14.667C14.8032 14.667 13.2771 14.0349 12.1518 12.9096C11.0266 11.7844 10.3945 10.2583 10.3945 8.66699C10.3945 7.07569 11.0266 5.54957 12.1518 4.42435C13.2771 3.29913 14.8032 2.66699 16.3945 2.66699C17.9858 2.66699 19.5119 3.29913 20.6371 4.42435C21.7623 5.54957 22.3945 7.07569 22.3945 8.66699Z" stroke="#012220" stroke-width="1.5" stroke-linecap="round" stroke-linejoin="round"/>
</svg>
