<svg width="19" height="18" viewBox="0 0 19 18" fill="none" xmlns="http://www.w3.org/2000/svg">
<path d="M2.19727 4.5C2.19727 3.08579 2.19727 2.37868 2.63661 1.93934C3.07595 1.5 3.78305 1.5 5.19727 1.5C6.61148 1.5 7.31859 1.5 7.75793 1.93934C8.19727 2.37868 8.19727 3.08579 8.19727 4.5V6C8.19727 7.41421 8.19727 8.12132 7.75793 8.56066C7.31859 9 6.61148 9 5.19727 9C3.78305 9 3.07595 9 2.63661 8.56066C2.19727 8.12132 2.19727 7.41421 2.19727 6V4.5Z" stroke="#F9FFFF" stroke-width="1.5"/>
<path d="M2.19727 14.25C2.19727 13.5511 2.19727 13.2016 2.31145 12.926C2.46369 12.5584 2.7557 12.2664 3.12324 12.1142C3.3989 12 3.74835 12 4.44727 12H5.94727C6.64618 12 6.99563 12 7.27129 12.1142C7.63883 12.2664 7.93084 12.5584 8.08309 12.926C8.19727 13.2016 8.19727 13.5511 8.19727 14.25C8.19727 14.9489 8.19727 15.2984 8.08309 15.574C7.93084 15.9416 7.63883 16.2336 7.27129 16.3858C6.99563 16.5 6.64618 16.5 5.94727 16.5H4.44727C3.74835 16.5 3.3989 16.5 3.12324 16.3858C2.7557 16.2336 2.46369 15.9416 2.31145 15.574C2.19727 15.2984 2.19727 14.9489 2.19727 14.25Z" stroke="#F9FFFF" stroke-width="1.5"/>
<path d="M11.1973 12C11.1973 10.5858 11.1973 9.87868 11.6366 9.43934C12.0759 9 12.7831 9 14.1973 9C15.6115 9 16.3186 9 16.7579 9.43934C17.1973 9.87868 17.1973 10.5858 17.1973 12V13.5C17.1973 14.9142 17.1973 15.6213 16.7579 16.0607C16.3186 16.5 15.6115 16.5 14.1973 16.5C12.7831 16.5 12.0759 16.5 11.6366 16.0607C11.1973 15.6213 11.1973 14.9142 11.1973 13.5V12Z" stroke="#F9FFFF" stroke-width="1.5"/>
<path d="M11.1973 3.75C11.1973 3.05109 11.1973 2.70163 11.3114 2.42597C11.4637 2.05843 11.7557 1.76642 12.1232 1.61418C12.3989 1.5 12.7484 1.5 13.4473 1.5H14.9473C15.6462 1.5 15.9956 1.5 16.2713 1.61418C16.6388 1.76642 16.9308 2.05843 17.0831 2.42597C17.1973 2.70163 17.1973 3.05109 17.1973 3.75C17.1973 4.44891 17.1973 4.79837 17.0831 5.07403C16.9308 5.44157 16.6388 5.73358 16.2713 5.88582C15.9956 6 15.6462 6 14.9473 6H13.4473C12.7484 6 12.3989 6 12.1232 5.88582C11.7557 5.73358 11.4637 5.44157 11.3114 5.07403C11.1973 4.79837 11.1973 4.44891 11.1973 3.75Z" stroke="#F9FFFF" stroke-width="1.5"/>
</svg>
