<svg width="17" height="17" viewBox="0 0 17 17" fill="none" xmlns="http://www.w3.org/2000/svg">
<g clip-path="url(#clip0_499_1676)">
<path d="M13.6973 4.04883L13.2841 10.7322C13.1786 12.4398 13.1258 13.2936 12.6978 13.9074C12.4862 14.2109 12.2137 14.467 11.8977 14.6595C11.2587 15.0488 10.4033 15.0488 8.69243 15.0488C6.97934 15.0488 6.1228 15.0488 5.4833 14.6588C5.16713 14.4659 4.8946 14.2094 4.68306 13.9054C4.25518 13.2906 4.20357 12.4356 4.10034 10.7256L3.69727 4.04883" stroke="#DC2626" stroke-width="1.3" stroke-linecap="round"/>
<path d="M2.69727 4.04818H14.6973M11.4011 4.04818L10.946 3.10933C10.6436 2.48568 10.4925 2.17386 10.2317 1.97938C10.1739 1.93624 10.1127 1.89787 10.0486 1.86464C9.75987 1.71484 9.41334 1.71484 8.72028 1.71484C8.00982 1.71484 7.65459 1.71484 7.36105 1.87092C7.296 1.90552 7.23392 1.94544 7.17546 1.99029C6.91169 2.19264 6.76435 2.51588 6.46967 3.16235L6.06588 4.04818" stroke="#DC2626" stroke-width="1.5" stroke-linecap="round"/>
<path d="M7.03076 11.3809L7.03076 7.38086" stroke="#DC2626" stroke-width="1.5" stroke-linecap="round"/>
<path d="M10.3638 11.3809L10.3638 7.38086" stroke="#DC2626" stroke-width="1.5" stroke-linecap="round"/>
</g>
<defs>
<clipPath id="clip0_499_1676">
<rect width="16" height="16" fill="white" transform="translate(0.697266 0.380859)"/>
</clipPath>
</defs>
</svg>
