<svg width="17" height="17" viewBox="0 0 17 17" fill="none" xmlns="http://www.w3.org/2000/svg">
<path d="M11.5068 3.70245L12.4413 2.76795C12.9574 2.25183 13.7942 2.25183 14.3103 2.76794C14.8265 3.28406 14.8265 4.12085 14.3103 4.63696L13.3758 5.57147M11.5068 3.70245L8.01758 7.19169C7.32071 7.88856 6.97227 8.237 6.73501 8.6616C6.49774 9.0862 6.25903 10.0888 6.03076 11.0475C6.98949 10.8193 7.99209 10.5805 8.41669 10.3433C8.84129 10.106 9.18972 9.75758 9.88659 9.06071L13.3758 5.57147M11.5068 3.70245L13.3758 5.57147" stroke="#068081" stroke-width="1.3" stroke-linecap="round" stroke-linejoin="round"/>
<path d="M14.6973 8.38086C14.6973 11.2093 14.6973 12.6235 13.8186 13.5022C12.9399 14.3809 11.5257 14.3809 8.69727 14.3809C5.86884 14.3809 4.45463 14.3809 3.57595 13.5022C2.69727 12.6235 2.69727 11.2093 2.69727 8.38086C2.69727 5.55243 2.69727 4.13822 3.57595 3.25954C4.45463 2.38086 5.86884 2.38086 8.69727 2.38086" stroke="#068081" stroke-width="1.5" stroke-linecap="round"/>
</svg>
