<svg width="25" height="24" viewBox="0 0 25 24" fill="none" xmlns="http://www.w3.org/2000/svg">
<path d="M4.57016 17.0194L3.36659 9.83981C3.18462 8.75428 3.09363 8.21152 3.385 7.85576C3.67637 7.5 4.21188 7.5 5.2829 7.5L20.1116 7.5C21.1827 7.5 21.7182 7.5 22.0095 7.85576C22.3009 8.21152 22.2099 8.75428 22.0279 9.83981L20.8244 17.0194C20.4255 19.3991 20.226 20.5889 19.4116 21.2945C18.5972 22 17.4233 22 15.0754 22L10.3191 22C7.97122 22 6.79729 22 5.98291 21.2945C5.16854 20.5889 4.96908 19.3991 4.57016 17.0194Z" stroke="#012220" stroke-width="1.5"/>
<path d="M18.1973 7.5C18.1973 4.46243 15.7348 2 12.6973 2C9.6597 2 7.19727 4.46243 7.19727 7.5" stroke="#012220" stroke-width="1.5"/>
</svg>
