<svg width="23" height="22" viewBox="0 0 23 22" fill="none" xmlns="http://www.w3.org/2000/svg">
<path d="M19.7133 1C18.5999 1 17.6973 3.68629 17.6973 7H19.7133C20.6849 7 21.1707 7 21.4714 6.66455C21.7721 6.32909 21.7198 5.88733 21.6151 5.00381C21.3387 2.67143 20.5916 1 19.7133 1Z" stroke="#012220" stroke-width="1.5"/>
<path d="M17.6973 7.05426V17.6458C17.6973 19.1575 17.6973 19.9133 17.2353 20.2108C16.4804 20.6971 15.3133 19.6774 14.7264 19.3073C14.2414 19.0014 13.9989 18.8485 13.7298 18.8397C13.439 18.8301 13.1922 18.9768 12.6681 19.3073L10.7573 20.5124C10.2418 20.8374 9.98406 21 9.69727 21C9.41047 21 9.15272 20.8374 8.63727 20.5124L6.72639 19.3073C6.24141 19.0014 5.99893 18.8485 5.7298 18.8397C5.43898 18.8301 5.19219 18.9768 4.66814 19.3073C4.08121 19.6774 2.91414 20.6971 2.15922 20.2108C1.69727 19.9133 1.69727 19.1575 1.69727 17.6458V7.05426C1.69727 4.20025 1.69727 2.77325 2.57595 1.88663C3.45462 1 4.86884 1 7.69727 1H19.6973" stroke="#012220" stroke-width="1.5" stroke-linecap="round" stroke-linejoin="round"/>
<path d="M5.69727 5H13.6973" stroke="#012220" stroke-width="1.5" stroke-linecap="round" stroke-linejoin="round"/>
<path d="M7.69727 9H5.69727" stroke="#012220" stroke-width="1.5" stroke-linecap="round" stroke-linejoin="round"/>
<path d="M12.1973 9.875C11.3688 9.875 10.6973 10.4626 10.6973 11.1875C10.6973 11.9124 11.3688 12.5 12.1973 12.5C13.0257 12.5 13.6973 13.0876 13.6973 13.8125C13.6973 14.5374 13.0257 15.125 12.1973 15.125M12.1973 9.875C12.8504 9.875 13.406 10.2402 13.6119 10.75M12.1973 9.875V9M12.1973 15.125C11.5442 15.125 10.9885 14.7598 10.7826 14.25M12.1973 15.125V16" stroke="#012220" stroke-width="1.5" stroke-linecap="round"/>
</svg>
